<svg width="29px" height="29px" viewBox="0 0 29 29" version="1.1" xmlns:xlink="http://www.w3.org/1999/xlink" xmlns="http://www.w3.org/2000/svg">
  <defs>
    <path d="M0 0L29 0L29 29L0 29L0 0Z" id="path_1" />
    <clipPath id="mask_1">
      <use xlink:href="#path_1" />
    </clipPath>
  </defs>
  <g id="Search-icon">
    <path d="M0 0L29 0L29 29L0 29L0 0Z" id="Background" fill="none" fill-rule="evenodd" stroke="none" />
    <g clip-path="url(#mask_1)">
      <path d="M8.76042 0C3.93648 0 0 3.93649 0 8.76042C0 13.5843 3.93648 17.5208 8.76042 17.5208C10.7379 17.5208 12.56 16.852 14.0292 15.739L19.6873 21.396C19.9904 21.7117 20.4404 21.8388 20.8639 21.7284C21.2873 21.618 21.618 21.2873 21.7284 20.8639C21.8388 20.4405 21.7117 19.9904 21.396 19.6873L15.739 14.0292C16.852 12.56 17.5208 10.7379 17.5208 8.76042C17.5208 3.93649 13.5844 0 8.76042 0L8.76042 0ZM8.76038 2.41669C12.2782 2.41669 15.1041 5.24257 15.1041 8.76044C15.1041 10.4495 14.448 11.975 13.3813 13.1088C13.2775 13.184 13.1863 13.2752 13.1111 13.379C11.977 14.4471 10.4507 15.1042 8.76038 15.1042C5.2425 15.1042 2.41663 12.2783 2.41663 8.76044C2.41663 5.24257 5.2425 2.41669 8.76038 2.41669L8.76038 2.41669Z" transform="translate(3.625 3.625)" id="Shape" fill="#04745B" fill-rule="evenodd" stroke="none" />
    </g>
  </g>
</svg>