<?xml version="1.0" encoding="utf-8"?>
<svg width="32px" height="32px" viewBox="0 0 32 32" version="1.1" xmlns:xlink="http://www.w3.org/1999/xlink" xmlns="http://www.w3.org/2000/svg">
  <defs>
    <path d="M0 0L32 0L32 32L0 32L0 0Z" id="path_1" />
    <clipPath id="mask_1">
      <use xlink:href="#path_1" />
    </clipPath>
  </defs>
  <g id="Settings-icon">
    <path d="M0 0L32 0L32 32L0 32L0 0Z" id="Background" fill="none" fill-rule="evenodd" stroke="none" />
    <g clip-path="url(#mask_1)">
      <path d="M10.7179 0C10.0792 0 9.53324 0.451458 9.41057 1.07813L8.96526 3.36458C7.87091 3.7784 6.85902 4.35654 5.97047 5.08594L3.77776 4.33073C3.17376 4.12273 2.50922 4.37248 2.18922 4.92448L0.178799 8.40885C-0.139868 8.96219 -0.0238889 9.66467 0.457445 10.0833L2.21526 11.612C2.12384 12.1738 2.06422 12.7457 2.06422 13.3333C2.06422 13.921 2.12384 14.4929 2.21526 15.0547L0.457445 16.5833C-0.0238889 17.002 -0.139868 17.7045 0.178799 18.2578L2.18922 21.7422C2.50788 22.2955 3.17376 22.5452 3.77776 22.3385L5.97047 21.5833C6.85873 22.3123 7.87141 22.8885 8.96526 23.3021L9.41057 25.5885C9.53324 26.2152 10.0792 26.6667 10.7179 26.6667L14.7439 26.6667C15.3826 26.6667 15.9285 26.2152 16.0512 25.5885L16.4965 23.3021C17.5909 22.8883 18.6027 22.3101 19.4913 21.5807L21.684 22.3359C22.288 22.5439 22.9526 22.2955 23.2725 21.7422L25.283 18.2552C25.6016 17.7019 25.4857 17.002 25.0043 16.5833L23.2465 15.0547C23.3379 14.4929 23.3975 13.921 23.3975 13.3333C23.3975 12.7457 23.3379 12.1738 23.2465 11.612L25.0043 10.0833C25.4857 9.66467 25.6016 8.96219 25.283 8.40885L23.2725 4.92448C22.9539 4.37115 22.288 4.12146 21.684 4.32813L19.4913 5.08333C18.603 4.35439 17.5904 3.77821 16.4965 3.36458L16.0512 1.07813C15.9285 0.451458 15.3826 0 14.7439 0L10.7179 0L10.7179 0ZM12.7308 8C15.6761 8 18.0641 10.388 18.0641 13.3333C18.0641 16.2787 15.6761 18.6667 12.7308 18.6667C9.78546 18.6667 7.39746 16.2787 7.39746 13.3333C7.39746 10.388 9.78546 8 12.7308 8L12.7308 8Z" transform="translate(3.269287 2.666626)" id="Shape" fill="#FFFFFF" fill-rule="evenodd" stroke="none" />
    </g>
  </g>
</svg>